<svg id="Capa_1" data-name="Capa 1" xmlns="http://www.w3.org/2000/svg" viewBox="0 0 80.21 14.35"><defs><style>.cls-1{fill:#27348b;}.cls-2{fill:#fff;}</style></defs><rect class="cls-1" width="80.21" height="14.35"/><path class="cls-2" d="M17.27,4.11a4,4,0,0,1,2.9-1.25A3.93,3.93,0,0,1,24.08,6h-1.2a2.73,2.73,0,0,0-2.71-1.9,2.87,2.87,0,0,0-2.06.9,3.09,3.09,0,0,0-.87,2.16,3.05,3.05,0,0,0,.87,2.13A2.89,2.89,0,0,0,23,8.15h1.19a4,4,0,0,1-6.87,2,4.35,4.35,0,0,1,0-6Z"/><path class="cls-2" d="M29.36,8.82h-3c-.32.77-.74,1.78-1,2.47H24l3.37-8.5h.89l3.37,8.5h-1.3ZM26.81,7.68h2.08l-1-3Z"/><path class="cls-2" d="M33.46,7h1.41a1.43,1.43,0,0,0,1.52-1.47,1.42,1.42,0,0,0-1.52-1.45H33v7.17h-1.2V2.9h3.06a2.6,2.6,0,0,1,2.74,2.67,2.53,2.53,0,0,1-2.18,2.57l2.66,3.15H36.51l-3-3.68Z"/><path class="cls-2" d="M39.78,7h1.41a1.46,1.46,0,1,0,0-2.92H39.34v7.17h-1.2V2.9h3a2.6,2.6,0,0,1,2.74,2.67,2.53,2.53,0,0,1-2.17,2.57l2.65,3.15H42.84L39.78,7.61Z"/><path class="cls-2" d="M48.51,4.11H47v6h1.55v1.21H44.18V10.08h1.56v-6H44.18V2.91h4.33Z"/><path class="cls-2" d="M51.48,11.33V4.12H48.94V2.9h6.28V4.12H52.69v7.21Z"/><path class="cls-2" d="M56.3,4.06a4.25,4.25,0,0,1,6.06,0,4.31,4.31,0,0,1,0,6.07,4.25,4.25,0,0,1-6.06,0,4.33,4.33,0,0,1,0-6.07Zm5.2.86A3.13,3.13,0,0,0,59.33,4a3,3,0,0,0-2.15.91,3.08,3.08,0,0,0,0,4.35,3,3,0,0,0,2.15.91A3.1,3.1,0,0,0,61.5,4.92Z"/></svg>