<svg width="37" height="37" viewBox="0 0 37 37" fill="none" xmlns="http://www.w3.org/2000/svg">
<g filter="url(#filter0_d)">
<path d="M25.1496 0H11.8504C7.52305 0 4 3.52305 4 7.85039V21.1496C4 25.477 7.52305 29 11.8504 29H25.1496C29.477 29 33 25.477 33 21.1496V7.85039C33 3.52305 29.477 0 25.1496 0ZM31.3008 21.1496C31.3008 24.5424 28.5424 27.3008 25.1496 27.3008H11.8504C8.45762 27.3008 5.69922 24.5424 5.69922 21.1496V7.85039C5.69922 4.45762 8.45762 1.69922 11.8504 1.69922H25.1496C28.5424 1.69922 31.3008 4.45762 31.3008 7.85039V21.1496Z" fill="white"/>
<path d="M18.5 6.57031C14.1273 6.57031 10.5703 10.1273 10.5703 14.5C10.5703 18.8727 14.1273 22.4297 18.5 22.4297C22.8727 22.4297 26.4297 18.8727 26.4297 14.5C26.4297 10.1273 22.8727 6.57031 18.5 6.57031ZM18.5 20.7305C15.0676 20.7305 12.2695 17.9381 12.2695 14.5C12.2695 11.0676 15.0619 8.26953 18.5 8.26953C21.9324 8.26953 24.7305 11.0619 24.7305 14.5C24.7305 17.9324 21.9324 20.7305 18.5 20.7305Z" fill="white"/>
<path d="M26.6164 3.75586C25.325 3.75586 24.2715 4.80937 24.2715 6.10078C24.2715 7.39219 25.325 8.4457 26.6164 8.4457C27.9078 8.4457 28.9613 7.39219 28.9613 6.10078C28.9613 4.80937 27.9135 3.75586 26.6164 3.75586ZM26.6164 6.74082C26.2596 6.74082 25.9707 6.45195 25.9707 6.09512C25.9707 5.73828 26.2596 5.44941 26.6164 5.44941C26.9732 5.44941 27.2621 5.73828 27.2621 6.09512C27.2621 6.45195 26.9732 6.74082 26.6164 6.74082Z" fill="white"/>
</g>
<defs>
<filter id="filter0_d" x="0" y="0" width="37" height="37" filterUnits="userSpaceOnUse" color-interpolation-filters="sRGB">
<feFlood flood-opacity="0" result="BackgroundImageFix"/>
<feColorMatrix in="SourceAlpha" type="matrix" values="0 0 0 0 0 0 0 0 0 0 0 0 0 0 0 0 0 0 127 0"/>
<feOffset dy="4"/>
<feGaussianBlur stdDeviation="2"/>
<feColorMatrix type="matrix" values="0 0 0 0 0 0 0 0 0 0 0 0 0 0 0 0 0 0 0.25 0"/>
<feBlend mode="normal" in2="BackgroundImageFix" result="effect1_dropShadow"/>
<feBlend mode="normal" in="SourceGraphic" in2="effect1_dropShadow" result="shape"/>
</filter>
</defs>
</svg>
