<svg width="75" height="12" viewBox="0 0 75 12" fill="none" xmlns="http://www.w3.org/2000/svg">
<path d="M2.50402 11V3.665L7.57402 11H8.77402V0.499999H7.27402V7.895L2.15902 0.499999L0.989023 0.484999V11H2.50402ZM18.7024 5.75C18.7024 6.83 18.2674 7.775 17.5924 8.465C16.8874 9.17 15.9124 9.605 14.8774 9.605C13.8424 9.605 12.8824 9.17 12.1924 8.465C11.5024 7.775 11.0674 6.815 11.0674 5.75C11.0674 4.685 11.5024 3.725 12.1924 3.035C12.8824 2.33 13.8424 1.895 14.8774 1.895C15.9124 1.895 16.8874 2.33 17.5924 3.035C18.2674 3.725 18.7024 4.67 18.7024 5.75ZM9.53738 5.75C9.53738 7.235 10.1524 8.57 11.0974 9.545C12.0574 10.535 13.4074 11.135 14.8774 11.135C16.3624 11.135 17.6974 10.535 18.6724 9.545C19.6174 8.57 20.2324 7.235 20.2324 5.75C20.2324 4.265 19.6174 2.93 18.6724 1.955C17.6974 0.979999 16.3624 0.364999 14.8774 0.364999C13.4074 0.364999 12.0574 0.979999 11.0974 1.955C10.1524 2.93 9.53738 4.265 9.53738 5.75ZM28.4046 3.155C28.1346 1.235 26.4546 0.395 24.8346 0.395C23.6196 0.395 22.3596 0.875 21.6546 1.79C21.2046 2.375 21.0246 3.08 21.0846 3.785V3.77C21.2496 5.96 23.1696 6.32 24.8046 6.485C25.8546 6.59 26.9346 6.725 27.1146 7.52C27.1446 7.655 27.1596 7.775 27.1596 7.88C27.1596 8.96 25.9296 9.59 24.8046 9.59C23.8296 9.59 22.6446 9.08 22.5396 8.105V8.165L22.5246 7.94L20.9946 7.97L21.0096 8.255C21.2046 10.13 23.1696 11.09 24.7896 11.09C26.6796 11.09 28.6896 9.92 28.6896 7.895C28.6896 7.685 28.6596 7.43 28.6146 7.205C28.2096 5.525 26.4246 5.15 24.9846 4.97C23.8596 4.865 22.6746 4.73 22.5996 3.65C22.5696 3.29 22.6446 2.945 22.8546 2.675C23.2746 2.135 24.0546 1.895 24.7596 1.88C25.6746 1.865 26.6946 2.27 26.9046 3.215L28.4046 3.155ZM38.3752 5.75C38.3752 6.83 37.9402 7.775 37.2652 8.465C36.5602 9.17 35.5852 9.605 34.5502 9.605C33.5152 9.605 32.5552 9.17 31.8652 8.465C31.1752 7.775 30.7402 6.815 30.7402 5.75C30.7402 4.685 31.1752 3.725 31.8652 3.035C32.5552 2.33 33.5152 1.895 34.5502 1.895C35.5852 1.895 36.5602 2.33 37.2652 3.035C37.9402 3.725 38.3752 4.67 38.3752 5.75ZM29.2102 5.75C29.2102 7.235 29.8252 8.57 30.7702 9.545C31.7302 10.535 33.0802 11.135 34.5502 11.135C36.0352 11.135 37.3702 10.535 38.3452 9.545C39.2902 8.57 39.9052 7.235 39.9052 5.75C39.9052 4.265 39.2902 2.93 38.3452 1.955C37.3702 0.979999 36.0352 0.364999 34.5502 0.364999C33.0802 0.364999 31.7302 0.979999 30.7702 1.955C29.8252 2.93 29.2102 4.265 29.2102 5.75ZM44.0503 11.045V2.03H47.2153V0.499999H39.3553V2.03H42.5353V11.045H44.0503ZM49.978 6.395L53.803 11H55.768L52.453 7.055C54.253 6.74 55.168 5.33 55.168 3.845C55.168 2.18 54.028 0.499999 51.748 0.499999H47.923V11H49.423V2.03H51.748C53.023 2.03 53.653 2.945 53.653 3.845C53.653 4.76 53.023 5.675 51.748 5.675H49.978V6.395ZM64.7131 5.75C64.7131 6.83 64.2781 7.775 63.6031 8.465C62.8981 9.17 61.9231 9.605 60.8881 9.605C59.8531 9.605 58.8931 9.17 58.2031 8.465C57.5131 7.775 57.0781 6.815 57.0781 5.75C57.0781 4.685 57.5131 3.725 58.2031 3.035C58.8931 2.33 59.8531 1.895 60.8881 1.895C61.9231 1.895 62.8981 2.33 63.6031 3.035C64.2781 3.725 64.7131 4.67 64.7131 5.75ZM55.5481 5.75C55.5481 7.235 56.1631 8.57 57.1081 9.545C58.0681 10.535 59.4181 11.135 60.8881 11.135C62.3731 11.135 63.7081 10.535 64.6831 9.545C65.6281 8.57 66.2431 7.235 66.2431 5.75C66.2431 4.265 65.6281 2.93 64.6831 1.955C63.7081 0.979999 62.3731 0.364999 60.8881 0.364999C59.4181 0.364999 58.0681 0.979999 57.1081 1.955C56.1631 2.93 55.5481 4.265 55.5481 5.75ZM74.4153 3.155C74.1453 1.235 72.4653 0.395 70.8453 0.395C69.6303 0.395 68.3703 0.875 67.6653 1.79C67.2153 2.375 67.0353 3.08 67.0953 3.785V3.77C67.2603 5.96 69.1803 6.32 70.8153 6.485C71.8653 6.59 72.9453 6.725 73.1253 7.52C73.1553 7.655 73.1703 7.775 73.1703 7.88C73.1703 8.96 71.9403 9.59 70.8153 9.59C69.8403 9.59 68.6553 9.08 68.5503 8.105V8.165L68.5353 7.94L67.0053 7.97L67.0203 8.255C67.2153 10.13 69.1803 11.09 70.8003 11.09C72.6903 11.09 74.7003 9.92 74.7003 7.895C74.7003 7.685 74.6703 7.43 74.6253 7.205C74.2203 5.525 72.4353 5.15 70.9953 4.97C69.8703 4.865 68.6853 4.73 68.6103 3.65C68.5803 3.29 68.6553 2.945 68.8653 2.675C69.2853 2.135 70.0653 1.895 70.7703 1.88C71.6853 1.865 72.7053 2.27 72.9153 3.215L74.4153 3.155Z" fill="white"/>
</svg>
