<svg width="37" height="37" viewBox="0 0 37 37" fill="none" xmlns="http://www.w3.org/2000/svg">
<g filter="url(#filter0_d)">
<path d="M18.4998 25.8609C24.7749 25.8609 29.8619 20.7739 29.8619 14.4988C29.8619 8.22371 24.7749 3.13672 18.4998 3.13672C12.2247 3.13672 7.1377 8.22371 7.1377 14.4988C7.1377 20.7739 12.2247 25.8609 18.4998 25.8609Z" fill="#2B317F"/>
<path d="M18.5 0C10.491 0 4 6.49102 4 14.5C4 22.509 10.491 29 18.5 29C26.509 29 33 22.509 33 14.5C33 6.49102 26.509 0 18.5 0ZM25.1213 11.3055C25.127 11.4471 25.1326 11.5943 25.1326 11.7359C25.1326 16.1313 21.7852 21.2062 15.6623 21.2062C13.7818 21.2062 12.0316 20.6568 10.559 19.7109C10.8195 19.7393 11.0857 19.7562 11.352 19.7562C12.9096 19.7562 14.3482 19.2238 15.4867 18.3289C14.0311 18.3006 12.802 17.3377 12.3771 16.018C12.5811 16.0576 12.7906 16.0803 13.0002 16.0803C13.3061 16.0803 13.6006 16.0406 13.8781 15.9613C12.3545 15.6555 11.2104 14.3131 11.2104 12.6988C11.2104 12.6818 11.2104 12.6705 11.2104 12.6535C11.6578 12.9027 12.1732 13.0557 12.717 13.067C11.8221 12.4723 11.2387 11.4527 11.2387 10.2973C11.2387 9.68555 11.4029 9.11348 11.6918 8.62637C13.3344 10.6428 15.7869 11.9625 18.551 12.1041C18.4943 11.8605 18.466 11.6057 18.466 11.3451C18.466 9.50996 19.9557 8.01465 21.7965 8.01465C22.7537 8.01465 23.6203 8.4168 24.2264 9.06816C24.9854 8.9209 25.699 8.64336 26.3391 8.2582C26.0898 9.03418 25.5631 9.68555 24.8777 10.099C25.5518 10.0197 26.1918 9.83848 26.7865 9.57227C26.3334 10.252 25.7727 10.8354 25.1213 11.3055Z" fill="white"/>
</g>
<defs>
<filter id="filter0_d" x="0" y="0" width="37" height="37" filterUnits="userSpaceOnUse" color-interpolation-filters="sRGB">
<feFlood flood-opacity="0" result="BackgroundImageFix"/>
<feColorMatrix in="SourceAlpha" type="matrix" values="0 0 0 0 0 0 0 0 0 0 0 0 0 0 0 0 0 0 127 0"/>
<feOffset dy="4"/>
<feGaussianBlur stdDeviation="2"/>
<feColorMatrix type="matrix" values="0 0 0 0 0 0 0 0 0 0 0 0 0 0 0 0 0 0 0.25 0"/>
<feBlend mode="normal" in2="BackgroundImageFix" result="effect1_dropShadow"/>
<feBlend mode="normal" in="SourceGraphic" in2="effect1_dropShadow" result="shape"/>
</filter>
</defs>
</svg>
